<svg id="visual" viewBox="0 0 900 600" width="900" height="600" xmlns="http://www.w3.org/2000/svg" xmlns:xlink="http://www.w3.org/1999/xlink" version="1.1"><rect x="0" y="0" width="900" height="600" fill="#001220"></rect><defs><linearGradient id="grad1_0" x1="33.3%" y1="0%" x2="100%" y2="100%"><stop offset="20%" stop-color="#001220" stop-opacity="1"></stop><stop offset="80%" stop-color="#001220" stop-opacity="1"></stop></linearGradient></defs><defs><linearGradient id="grad2_0" x1="0%" y1="0%" x2="66.7%" y2="100%"><stop offset="20%" stop-color="#001220" stop-opacity="1"></stop><stop offset="80%" stop-color="#001220" stop-opacity="1"></stop></linearGradient></defs><g transform="translate(900, 0)"><path d="M0 324.5C-11.2 297.2 -22.4 269.9 -34.5 261.7C-46.5 253.6 -59.4 264.5 -71.7 267.6C-84 270.6 -95.8 265.8 -108.7 262.4C-121.6 259 -135.7 257 -141.5 245.1C-147.3 233.1 -145 211.2 -159.5 207.9C-174 204.5 -205.5 219.7 -210 210C-214.5 200.4 -192.1 165.9 -205.5 157.7C-218.9 149.4 -268.2 167.4 -281 162.2C-293.8 157.1 -270.1 128.7 -272.5 112.9C-275 97.1 -303.6 93.9 -311 83.3C-318.4 72.8 -304.7 55 -303.4 39.9C-302.1 24.8 -313.3 12.4 -324.5 0L0 0Z" fill="#009473"></path></g><g transform="translate(0, 600)"><path d="M0 -324.5C14.3 -320.7 28.7 -317 40.2 -305.4C51.7 -293.8 60.4 -274.3 71.2 -265.6C81.9 -257 94.7 -259.1 107.2 -258.7C119.6 -258.3 131.9 -255.2 146.5 -253.7C161.1 -252.2 178.2 -252.3 183.2 -238.8C188.3 -225.3 181.3 -198.4 184.6 -184.6C187.8 -170.7 201.2 -169.9 221.3 -169.8C241.5 -169.8 268.4 -170.6 281 -162.2C293.7 -153.9 292.1 -136.6 293.8 -121.7C295.5 -106.8 300.4 -94.5 304.3 -81.5C308.2 -68.6 311.1 -55.1 314.3 -41.4C317.5 -27.7 321 -13.8 324.5 0L0 0Z" fill="#009473"></path></g></svg>