<svg id="visual" viewBox="0 0 900 600" width="900" height="600" xmlns="http://www.w3.org/2000/svg" xmlns:xlink="http://www.w3.org/1999/xlink" version="1.1"><path d="M0 97L82 109L164 43L245 61L327 91L409 127L491 73L573 103L655 67L736 37L818 121L900 115L900 0L818 0L736 0L655 0L573 0L491 0L409 0L327 0L245 0L164 0L82 0L0 0Z" fill="#00cc8e"></path><path d="M0 247L82 253L164 217L245 157L327 307L409 265L491 301L573 307L655 247L736 157L818 295L900 253L900 113L818 119L736 35L655 65L573 101L491 71L409 125L327 89L245 59L164 41L82 107L0 95Z" fill="#00b98a"></path><path d="M0 421L82 427L164 361L245 385L327 415L409 499L491 439L573 379L655 355L736 421L818 403L900 391L900 251L818 293L736 155L655 245L573 305L491 299L409 263L327 305L245 155L164 215L82 251L0 245Z" fill="#00a784"></path><path d="M0 469L82 529L164 421L245 451L327 493L409 535L491 541L573 457L655 445L736 523L818 463L900 463L900 389L818 401L736 419L655 353L573 377L491 437L409 497L327 413L245 383L164 359L82 425L0 419Z" fill="#00957c"></path><path d="M0 601L82 601L164 601L245 601L327 601L409 601L491 601L573 601L655 601L736 601L818 601L900 601L900 461L818 461L736 521L655 443L573 455L491 539L409 533L327 491L245 449L164 419L82 527L0 467Z" fill="#038373"></path></svg>